<svg width="230" height="23" viewBox="0 0 230 23" fill="none" xmlns="http://www.w3.org/2000/svg">
<g filter="url(#filter0_i)">
<path d="M20.3586 0.999999H18.7686H16.3386C15.9186 0.999999 15.6186 1.18 15.4686 1.57L10.6086 13.12L5.74859 1.57C5.59859 1.18 5.29859 0.999999 4.87859 0.999999H4.15859H0.858594C0.378594 0.999999 0.108594 1.27 0.108594 1.75V21.25C0.108594 21.73 0.378594 22 0.858594 22H4.15859C4.63859 22 4.90859 21.73 4.90859 21.25V9.13L8.71859 18.16C8.86859 18.55 9.16859 18.73 9.58859 18.73H11.6286C12.0486 18.73 12.3486 18.55 12.4986 18.16L16.3086 9.13V21.25C16.3086 21.73 16.5786 22 17.0586 22H20.3586C20.8386 22 21.1086 21.73 21.1086 21.25V1.75C21.1086 1.27 20.8386 0.999999 20.3586 0.999999ZM31.858 6.58C27.118 6.58 23.818 10.03 23.818 14.5C23.818 18.97 26.998 22.42 31.978 22.42C35.038 22.42 37.498 21.07 38.668 18.46C38.908 17.98 38.608 17.62 38.068 17.62L35.188 17.65C34.798 17.65 34.558 17.8 34.258 18.04C33.718 18.49 32.878 18.79 32.038 18.79C30.448 18.79 29.068 18.1 28.528 16.3H34.888H38.548C38.998 16.3 39.298 16.09 39.358 15.61C39.388 15.25 39.418 14.89 39.418 14.5C39.418 9.97 36.238 6.58 31.858 6.58ZM28.498 12.88C28.948 11.41 30.118 10.57 31.828 10.57C33.148 10.57 34.468 11.2 34.918 12.88H28.498ZM42.6617 22H45.6617C46.1417 22 46.4117 21.73 46.4117 21.25V1.15C46.4117 0.669999 46.1417 0.399999 45.6617 0.399999H42.6617C42.1817 0.399999 41.9117 0.669999 41.9117 1.15V21.25C41.9117 21.73 42.1817 22 42.6617 22ZM56.9947 6.58C52.2547 6.58 48.9547 10.03 48.9547 14.5C48.9547 18.97 52.1347 22.42 57.1147 22.42C60.1747 22.42 62.6347 21.07 63.8047 18.46C64.0447 17.98 63.7447 17.62 63.2047 17.62L60.3247 17.65C59.9347 17.65 59.6947 17.8 59.3947 18.04C58.8547 18.49 58.0147 18.79 57.1747 18.79C55.5847 18.79 54.2047 18.1 53.6647 16.3H60.0247H63.6847C64.1347 16.3 64.4347 16.09 64.4947 15.61C64.5247 15.25 64.5547 14.89 64.5547 14.5C64.5547 9.97 61.3747 6.58 56.9947 6.58ZM53.6347 12.88C54.0847 11.41 55.2547 10.57 56.9647 10.57C58.2847 10.57 59.6047 11.2 60.0547 12.88H53.6347ZM80.4884 21.1L75.8384 14.5L80.2484 7.9C80.5784 7.39 80.3684 7 79.7684 7H76.3184C75.9284 7 75.6284 7.15 75.4184 7.48L71.5484 13.54V1.75C71.5484 1.27 71.2784 0.999999 70.7984 0.999999H67.7984C67.3184 0.999999 67.0484 1.27 67.0484 1.75V21.25C67.0484 21.73 67.3184 22 67.7984 22H70.7984C71.2784 22 71.5484 21.73 71.5484 21.25V15.43L75.7184 21.52C75.9284 21.85 76.2284 22 76.6184 22H80.0384C80.6384 22 80.8484 21.61 80.4884 21.1ZM90.9102 0.999999H87.7602H83.7102C83.2302 0.999999 82.9602 1.27 82.9602 1.75V21.25C82.9602 21.73 83.2302 22 83.7102 22H87.0102C87.4902 22 87.7602 21.73 87.7602 21.25V15.4H90.9102C95.0502 15.4 98.2602 12.19 98.2602 8.2C98.2602 4.21 95.0502 0.999999 90.9102 0.999999ZM90.9102 10.9H87.7602V5.5H90.9102C92.3802 5.5 93.4602 6.67 93.4602 8.2C93.4602 9.73 92.3802 10.9 90.9102 10.9ZM107.034 6.58C102.294 6.58 98.9938 10.03 98.9938 14.5C98.9938 18.97 102.174 22.42 107.154 22.42C110.214 22.42 112.674 21.07 113.844 18.46C114.084 17.98 113.784 17.62 113.244 17.62L110.364 17.65C109.974 17.65 109.734 17.8 109.434 18.04C108.894 18.49 108.054 18.79 107.214 18.79C105.624 18.79 104.244 18.1 103.704 16.3H110.064H113.724C114.174 16.3 114.474 16.09 114.534 15.61C114.564 15.25 114.594 14.89 114.594 14.5C114.594 9.97 111.414 6.58 107.034 6.58ZM103.674 12.88C104.124 11.41 105.294 10.57 107.004 10.57C108.324 10.57 109.644 11.2 110.094 12.88H103.674ZM125.488 6.58C123.568 6.58 122.278 7.33 121.588 8.38V7.75C121.588 7.27 121.318 7 120.838 7H117.838C117.358 7 117.088 7.27 117.088 7.75V21.25C117.088 21.73 117.358 22 117.838 22H120.838C121.318 22 121.588 21.73 121.588 21.25V13.24C121.588 11.47 122.428 10.72 123.778 10.72C124.918 10.72 125.788 11.38 125.788 12.88V21.25C125.788 21.73 126.058 22 126.538 22H129.538C130.018 22 130.288 21.73 130.288 21.25V12.49C130.288 8.74 128.278 6.58 125.488 6.58ZM147.841 0.999999H144.841C144.361 0.999999 144.091 1.27 144.091 1.75V8.41C143.071 7.27 141.601 6.58 139.621 6.58C135.691 6.58 132.451 10.03 132.451 14.5C132.451 18.97 135.691 22.42 139.621 22.42C141.601 22.42 143.071 21.76 144.091 20.62V21.25C144.091 21.73 144.361 22 144.841 22H147.841C148.321 22 148.591 21.73 148.591 21.25V1.75C148.591 1.27 148.321 0.999999 147.841 0.999999ZM140.521 18.16C138.451 18.16 136.951 16.75 136.951 14.5C136.951 12.25 138.451 10.84 140.521 10.84C142.591 10.84 144.091 12.25 144.091 14.5C144.091 16.75 142.591 18.16 140.521 18.16ZM152.642 5.2H155.642C156.122 5.2 156.392 4.93 156.392 4.45V1.75C156.392 1.27 156.122 0.999999 155.642 0.999999H152.642C152.162 0.999999 151.892 1.27 151.892 1.75V4.45C151.892 4.93 152.162 5.2 152.642 5.2ZM152.642 22H155.642C156.122 22 156.392 21.73 156.392 21.25V7.75C156.392 7.27 156.122 7 155.642 7H152.642C152.162 7 151.892 7.27 151.892 7.75V21.25C151.892 21.73 152.162 22 152.642 22ZM174.325 0.999999H171.325C170.845 0.999999 170.575 1.27 170.575 1.75V8.41C169.555 7.27 168.085 6.58 166.105 6.58C162.175 6.58 158.935 10.03 158.935 14.5C158.935 18.97 162.175 22.42 166.105 22.42C168.085 22.42 169.555 21.76 170.575 20.62V21.25C170.575 21.73 170.845 22 171.325 22H174.325C174.805 22 175.075 21.73 175.075 21.25V1.75C175.075 1.27 174.805 0.999999 174.325 0.999999ZM167.005 18.16C164.935 18.16 163.435 16.75 163.435 14.5C163.435 12.25 164.935 10.84 167.005 10.84C169.075 10.84 170.575 12.25 170.575 14.5C170.575 16.75 169.075 18.16 167.005 18.16ZM179.127 5.2H182.127C182.607 5.2 182.877 4.93 182.877 4.45V1.75C182.877 1.27 182.607 0.999999 182.127 0.999999H179.127C178.647 0.999999 178.377 1.27 178.377 1.75V4.45C178.377 4.93 178.647 5.2 179.127 5.2ZM179.127 22H182.127C182.607 22 182.877 21.73 182.877 21.25V7.75C182.877 7.27 182.607 7 182.127 7H179.127C178.647 7 178.377 7.27 178.377 7.75V21.25C178.377 21.73 178.647 22 179.127 22ZM199.61 21.1L194.96 14.5L199.37 7.9C199.7 7.39 199.49 7 198.89 7H195.44C195.05 7 194.75 7.15 194.54 7.48L190.67 13.54V1.75C190.67 1.27 190.4 0.999999 189.92 0.999999H186.92C186.44 0.999999 186.17 1.27 186.17 1.75V21.25C186.17 21.73 186.44 22 186.92 22H189.92C190.4 22 190.67 21.73 190.67 21.25V15.43L194.84 21.52C195.05 21.85 195.35 22 195.74 22H199.16C199.76 22 199.97 21.61 199.61 21.1ZM207.087 6.58C204.027 6.58 201.267 8.23 200.877 11.47C200.847 11.98 201.147 12.25 201.627 12.25H204.567C205.017 12.25 205.167 12.01 205.347 11.59C205.587 11.08 206.157 10.72 207.087 10.72C208.347 10.72 208.947 11.38 208.947 12.85V14.23C208.137 13.6 206.937 13.06 205.077 13.06C202.437 13.06 200.127 14.62 200.127 17.74C200.127 20.86 202.437 22.42 205.077 22.42C206.937 22.42 208.137 21.79 208.947 20.83V21.25C208.947 21.73 209.217 22 209.697 22H212.577C213.057 22 213.327 21.73 213.327 21.25V12.55C213.327 8.5 210.387 6.58 207.087 6.58ZM206.667 19.24C205.287 19.24 204.627 18.61 204.627 17.74C204.627 16.87 205.287 16.24 206.667 16.24C208.137 16.24 208.947 16.81 208.947 17.74C208.947 18.61 208.137 19.24 206.667 19.24ZM224.628 6.58C222.708 6.58 221.418 7.33 220.728 8.38V7.75C220.728 7.27 220.458 7 219.978 7H216.978C216.498 7 216.228 7.27 216.228 7.75V21.25C216.228 21.73 216.498 22 216.978 22H219.978C220.458 22 220.728 21.73 220.728 21.25V13.24C220.728 11.47 221.568 10.72 222.918 10.72C224.058 10.72 224.928 11.38 224.928 12.88V21.25C224.928 21.73 225.198 22 225.678 22H228.678C229.158 22 229.428 21.73 229.428 21.25V12.49C229.428 8.74 227.418 6.58 224.628 6.58Z" fill="white"/>
</g>
<defs>
<filter id="filter0_i" x="0.108582" y="0.4" width="229.32" height="24.02" filterUnits="userSpaceOnUse" color-interpolation-filters="sRGB">
<feFlood flood-opacity="0" result="BackgroundImageFix"/>
<feBlend mode="normal" in="SourceGraphic" in2="BackgroundImageFix" result="shape"/>
<feColorMatrix in="SourceAlpha" type="matrix" values="0 0 0 0 0 0 0 0 0 0 0 0 0 0 0 0 0 0 127 0" result="hardAlpha"/>
<feOffset dy="2"/>
<feGaussianBlur stdDeviation="1"/>
<feComposite in2="hardAlpha" operator="arithmetic" k2="-1" k3="1"/>
<feColorMatrix type="matrix" values="0 0 0 0 0 0 0 0 0 0 0 0 0 0 0 0 0 0 0.25 0"/>
<feBlend mode="normal" in2="shape" result="effect1_innerShadow"/>
</filter>
</defs>
</svg>
